<svg id="Layer_1" data-name="Layer 1" xmlns="http://www.w3.org/2000/svg" xmlns:xlink="http://www.w3.org/1999/xlink" viewBox="0 0 1080 1080">
  <defs>
    <linearGradient id="linear-gradient" x1="472.08" y1="356.54" x2="539.04" y2="356.54" gradientUnits="userSpaceOnUse">
      <stop offset="0" stop-color="#68c0b8"/>
      <stop offset="0.38" stop-color="#68c0b8"/>
      <stop offset="0.61" stop-color="#408d92"/>
      <stop offset="0.72" stop-color="#307883"/>
      <stop offset="1" stop-color="#0a4961"/>
    </linearGradient>
    <linearGradient id="linear-gradient-2" x1="445.19" y1="619.28" x2="510.17" y2="619.28" xlink:href="#linear-gradient"/>
    <linearGradient id="linear-gradient-3" x1="563.25" y1="509.04" x2="767.99" y2="509.04" xlink:href="#linear-gradient"/>
    <radialGradient id="New_Gradient_Swatch_2" data-name="New Gradient Swatch 2" cx="473.94" cy="21.42" r="297.87" gradientTransform="translate(-39.2 930.6) rotate(-63.2)" gradientUnits="userSpaceOnUse">
      <stop offset="0" stop-color="#fff"/>
      <stop offset="0.5" stop-color="#31ade4"/>
      <stop offset="1" stop-color="#33338d"/>
    </radialGradient>
    <radialGradient id="New_Gradient_Swatch_2-2" cx="955.19" cy="699.29" r="297.87" gradientTransform="matrix(-0.7, -0.72, -0.72, 0.7, 1598.92, 680.67)" xlink:href="#New_Gradient_Swatch_2"/>
    <linearGradient id="linear-gradient-4" x1="165.22" y1="439.44" x2="417.35" y2="439.44" gradientUnits="userSpaceOnUse">
      <stop offset="0" stop-color="#9bc06c"/>
      <stop offset="0.2" stop-color="#95bb67"/>
      <stop offset="0.47" stop-color="#83ab58"/>
      <stop offset="0.78" stop-color="#679241"/>
      <stop offset="1" stop-color="#4e7c2c"/>
    </linearGradient>
    <linearGradient id="linear-gradient-5" x1="216.03" y1="500.67" x2="342.67" y2="500.67" xlink:href="#linear-gradient-4"/>
    <linearGradient id="linear-gradient-6" x1="29.13" y1="429.75" x2="423.91" y2="429.75" gradientUnits="userSpaceOnUse">
      <stop offset="0" stop-color="#e0e435"/>
      <stop offset="1" stop-color="#57afb5"/>
    </linearGradient>
    <linearGradient id="linear-gradient-7" x1="375.12" y1="551.69" x2="1040.41" y2="551.69" xlink:href="#linear-gradient-4"/>
  </defs>
  <g>
    <g>
      <path d="M473.1,389.5l65.9-66H472.1S474.5,391,473.1,389.5Z" style="fill: url(#linear-gradient)"/>
      <path d="M445.2,642.9l65-65v82.7h-65S446.7,644.4,445.2,642.9Z" style="fill: url(#linear-gradient-2)"/>
      <path d="M688.8,415.9l-.3.6c-1.6,4.3-1.2,9-1.4,13.6-1,27-24.6,51.2-51.5,53-5,.3-10.1,0-14.7,1.6s-9,5.7-12.8,9.5l-44.9,44.9C590.3,512,671.4,628,684.6,643.8c1.8,2.3,3.8,4.6,6.5,5.8s5,1,7.5,1H768L670.5,540.1c-1-1.2-2.2-2.6-2.2-4.2s2.7-4.1,5-5.2c17.6-8.2,39.8-14.5,53.4-28.9s22.1-35.9,23.8-56.4c2.2-26.6-4.8-53.2-14.8-77.9l-39.3,38.6C693.5,409,690.4,412.1,688.8,415.9Z" style="fill: url(#linear-gradient-3)"/>
    </g>
    <path d="M296.8,525l5.1-.8L327,704.8c1.7,9.2,9.1,12.5,18.3,12.3-9.8,3.3-30.3,1.8-32.7-10.4L301.1,600.4l4.3-.5Z" style="fill-rule: evenodd;fill: url(#New_Gradient_Swatch_2)"/>
    <path d="M349.9,595l4.2-.8,20.7,104.9c1.4,12.4-17.7,19.9-28.1,19.7,8.8-2.5,15-7.9,13.9-17.2l-30-179.9,5.1-.8Z" style="fill-rule: evenodd;fill: url(#New_Gradient_Swatch_2-2)"/>
    <circle cx="291.3" cy="439.4" r="126.1" style="fill: url(#linear-gradient-4)"/>
    <path d="M365,374.9c-3.3-2.9-5.9-7.1-9.1-10.2-28.4-27.6-73.7-36.4-110.4-22s-59.2,50.6-62,88.6a112.9,112.9,0,0,0,5.9,45.4c13.1,37.3,50.9,64.7,90.4,65.6,28.1.6,55.8-13,74.4-33.7,2.8-3.2,8.1-8.3,8.4-12.9-.2,3.2-15.8,5.8-17.7,6-20.6,2.8-40.9-4.6-58.8-14.4s-36-22.4-56.2-15.4a31.2,31.2,0,0,0-9.4,5.3c-1.4,1.1-9.1,7.8-8.3,9.7,0,0,15,37.8,60.2,45.2-9.3-1.5-18.1-1.9-27.2-5.5-19.1-7.4-33.6-22-41.9-40.6-14.8-32.9-11.8-76.9,13.9-103.8,27.4-28.7,71.4-42.6,109.6-29.6A115.6,115.6,0,0,1,365,374.9Z" style="fill: #fff"/>
    <path d="M238,383.7c10.1-7.8,20.6-10.7,32.9-13.5,25.9-5.9,52.5.2,74.3,14.8,42,28.1,54.2,95.6,19.8,134.2l-3.2,3.3a18.8,18.8,0,0,1-2.5,2.4c35.9-31.4,50.2-92.7,16.7-131.2C340,352.2,280.3,351.2,238,383.7Z" style="fill: #fff"/>
    <rect x="206.2" y="403.6" width="28.2" height="5.2" rx="0.3" transform="translate(-161.4 145.7) rotate(-27.2)" style="fill: #fff"/>
    <rect x="249.9" y="402.4" width="28.2" height="5.2" rx="0.3" transform="translate(136.3 -61.3) rotate(17.8)" style="fill: #fff"/>
    <rect x="293.3" y="401" width="29.7" height="5.57" rx="0.3" transform="translate(-150.5 185.6) rotate(-27.2)" style="fill: #fff"/>
    <circle cx="325" cy="393.6" r="9.8" style="fill: #fff"/>
    <circle cx="285.8" cy="409.6" r="9.8" style="fill: #fff"/>
    <circle cx="241.7" cy="397.7" r="9.8" style="fill: #fff"/>
    <path d="M222.7,413.9l38.1,1.8-2.4,50.9s-21.4-6.3-38.8,4.2C219.6,470.8,223,414.1,222.7,413.9Z" style="fill: #fff"/>
    <path d="M266.5,428.6l38.7,1.9-2.8,57.7s-34.7-18.4-37.7-18.9C264.7,469.3,266.7,428.8,266.5,428.6Z" style="fill: #fff"/>
    <path d="M311.9,409.5l38.7,1.9-4.1,84.8c-.1,1.2-17.4-1.5-18.7-1.7s-19.7-2.7-19.6-4.5C308.2,490,311.8,410.2,311.9,409.5Z" style="fill: #fff"/>
    <path d="M216.1,486.6c-.7-1.4,8.7-6.5,9.4-6.9,26.4-12.3,53.6,9.2,76.5,19.7,12,5.5,27.5,9.8,40.7,8.4-.8,0-2.4,1.8-3,2.2a65.2,65.2,0,0,1-9.2,5.4,99.7,99.7,0,0,1-36.4,9.6c-21.9,1.6-43.4-2.7-60.7-16.8A67.2,67.2,0,0,1,216.1,486.6Z" style="fill: url(#linear-gradient-5)"/>
    <path d="M293.4,587c-63.1,14.7-134.9-18.1-165.7-78.7-34.2-67.1-14.6-158.9,42.9-204.9s145.7-41.8,199.6,8.8l.2-.2,53.5-56.1c-37.8-38.6-88.4-63.2-140.8-68.3C148.4,174.3,27.5,289.4,29.1,432.8c1,81,43,160.2,108,203.4,46,30.6,102.5,42.3,156.3,34.4Z" style="fill: url(#linear-gradient-6)"/>
    <path d="M899.1,445.1c-.1,0-46.7-46.7-50.1-50.1-30.2-30.4-61.6-76.3-101.4-94.1-31.8-14.3-53.9-8.2-85.1,6.1-25.6,11.7-55,44.2-74.6,63.7-21.6,21.5-42.8,43.4-64.3,65L398.4,561c-7.6,7.6-15.3,15.2-23.3,22.4v76c32.7-19.1,59.9-47.2,86.4-74.5q15-15.4,30-30.6c14.1-14.4,28.3-28.6,42.6-42.8s28.4-28.2,42.7-42.3l42.9-42.1,43-42.3,21.6-21.2c8.8-8.8,16.9-18.7,29.2-22.6,28.9-9.2,58.5,33.1,75.3,50l48,47.9,65.3,65.3,88.1-88.1V810.6h50.2V303.8Z" style="fill: url(#linear-gradient-7)"/>
    <path d="M30.9,410S8.3,601.1,205.7,667.8c0,0-82.9-64.9-36.9-109.1C168.8,558.7,60.6,629.9,30.9,410Z" style="fill: #f6fa5b"/>
  </g>
  <g>
    <path d="M64.7,742.5H88.5a66.9,66.9,0,0,1,10.5.6,17.2,17.2,0,0,1,6.3,2.4,15.6,15.6,0,0,1,4.5,5,13.8,13.8,0,0,1,1.9,7,14.2,14.2,0,0,1-8.4,12.9,16.6,16.6,0,0,1,8.4,5.4,14.9,14.9,0,0,1,2.9,9,18.7,18.7,0,0,1-1.9,7.9,15.6,15.6,0,0,1-5.2,6.1,16.7,16.7,0,0,1-8,2.9c-2,.2-6.9.3-14.6.4H64.7Zm12,9.9v13.8h7.9c4.7,0,7.6-.1,8.7-.2a8.3,8.3,0,0,0,4.9-2.2,6,6,0,0,0,1.7-4.6,6.1,6.1,0,0,0-6-6.6c-1.2-.1-4.6-.2-10.3-.2Zm0,23.7V792H87.8a66.9,66.9,0,0,0,8.3-.3,8.6,8.6,0,0,0,4.4-2.4,7.6,7.6,0,0,0,1.6-5.1,7.3,7.3,0,0,0-1.3-4.5,7.1,7.1,0,0,0-3.7-2.8c-1.7-.5-5.2-.8-10.7-.8Z" style="fill: #247c3d"/>
    <path d="M123.4,758.9h12.2l10.3,30.7L156,758.9h11.8l-15.2,41.5-2.8,7.6a30.1,30.1,0,0,1-2.8,5.7,12.6,12.6,0,0,1-3.2,3.3,14.3,14.3,0,0,1-4.3,1.9,21,21,0,0,1-5.8.7,28.1,28.1,0,0,1-6.5-.7l-1-8.9a30.1,30.1,0,0,0,4.8.5c2.7,0,4.6-.8,5.9-2.4a14.2,14.2,0,0,0,2.9-5.9Z" style="fill: #247c3d"/>
    <path d="M244.8,780.2l11.7,3.7c-1.8,6.5-4.8,11.3-9,14.5s-9.4,4.7-15.8,4.7-14.4-2.7-19.5-8.1-7.6-12.8-7.6-22.2,2.5-17.6,7.6-23.1,11.9-8.2,20.2-8.2,13.3,2.1,17.8,6.4c2.7,2.6,4.7,6.2,6.1,11l-11.9,2.8a13.1,13.1,0,0,0-4.4-7.3,12.8,12.8,0,0,0-8.2-2.7,13.4,13.4,0,0,0-10.7,4.8c-2.8,3.2-4.1,8.3-4.1,15.4s1.3,12.9,4,16.1a13.2,13.2,0,0,0,10.6,4.8,12,12,0,0,0,8.2-3C242.1,787.7,243.8,784.5,244.8,780.2Z" style="fill: #247c3d"/>
    <path d="M268.2,779.9a24,24,0,0,1,2.8-11,19.8,19.8,0,0,1,8-8.2,24.2,24.2,0,0,1,11.5-2.8c6.5,0,11.9,2.1,16,6.4s6.3,9.6,6.3,16.1a22.2,22.2,0,0,1-6.3,16.2,21.6,21.6,0,0,1-16,6.4,24.9,24.9,0,0,1-11.3-2.6,18.4,18.4,0,0,1-8.2-7.9A27.2,27.2,0,0,1,268.2,779.9Zm11.7.6c0,4.3,1.1,7.5,3.1,9.8a10,10,0,0,0,15,0q3-3.4,3-9.9c0-4.2-1-7.5-3-9.8a10,10,0,0,0-15,0C281,772.9,279.9,776.2,279.9,780.5Z" style="fill: #247c3d"/>
    <path d="M365.2,802.1H353.7V780c0-4.6-.2-7.6-.7-9a6.5,6.5,0,0,0-2.4-3.2,6.4,6.4,0,0,0-3.9-1.1,9.3,9.3,0,0,0-5.4,1.6,8.6,8.6,0,0,0-3.2,4.3q-.9,2.7-.9,9.9v19.6H325.8V758.9h10.6v6.3c3.8-4.8,8.5-7.3,14.2-7.3a17.5,17.5,0,0,1,7,1.4,12.3,12.3,0,0,1,4.7,3.5,11.7,11.7,0,0,1,2.2,4.8,29.6,29.6,0,0,1,.7,7.6Z" style="fill: #247c3d"/>
    <path d="M418.6,771.7l-11.3,2a8.1,8.1,0,0,0-2.6-5.1,7.9,7.9,0,0,0-5.2-1.7,8.4,8.4,0,0,0-6.8,3c-1.7,1.9-2.6,5.2-2.6,9.8s.9,8.8,2.6,10.9a8.6,8.6,0,0,0,7,3.1,7.9,7.9,0,0,0,5.3-1.8c1.4-1.2,2.3-3.4,2.9-6.4l11.2,1.9c-1.1,5.2-3.4,9.1-6.7,11.7s-7.7,3.9-13.3,3.9-11.3-1.9-15.1-5.9-5.6-9.5-5.6-16.6,1.9-12.7,5.6-16.6,8.9-6,15.3-6,9.5,1.2,12.6,3.4S417.2,767,418.6,771.7Z" style="fill: #247c3d"/>
    <path d="M456.4,788.3l11.4,1.9a18.9,18.9,0,0,1-7,9.6c-3.1,2.2-7.1,3.2-11.8,3.2-7.5,0-13.1-2.4-16.7-7.3s-4.3-8.9-4.3-14.9,1.9-12.7,5.7-16.8a18.5,18.5,0,0,1,14.1-6.1c6.5,0,11.5,2.1,15.2,6.4s5.5,10.7,5.4,19.5H439.8a11.4,11.4,0,0,0,2.7,7.9,8.7,8.7,0,0,0,6.6,2.8,6.8,6.8,0,0,0,4.5-1.5A8.6,8.6,0,0,0,456.4,788.3Zm.6-11.5c-.1-3.3-.9-5.8-2.5-7.6a8,8,0,0,0-6-2.5,7.8,7.8,0,0,0-6.1,2.7,9.9,9.9,0,0,0-2.4,7.4Z" style="fill: #247c3d"/>
    <path d="M481.5,758.9h10.7v6.3a15.6,15.6,0,0,1,5.6-5.2,15,15,0,0,1,7.8-2.1,16.7,16.7,0,0,1,12.8,5.9c3.5,3.9,5.2,9.4,5.2,16.4s-1.7,12.9-5.3,16.9a16.5,16.5,0,0,1-12.8,5.9,13.7,13.7,0,0,1-6.4-1.4,19.8,19.8,0,0,1-6.2-4.9v21.8H481.5Zm11.3,20.9c0,4.8,1,8.4,2.9,10.7a8.9,8.9,0,0,0,7,3.5,8.5,8.5,0,0,0,6.7-3.2c1.7-2.1,2.6-5.6,2.6-10.5s-.9-7.9-2.7-10.1a8.8,8.8,0,0,0-13.7,0C493.7,772.3,492.8,775.5,492.8,779.8Z" style="fill: #247c3d"/>
    <path d="M556.7,758.9V768h-7.8v17.4a38.4,38.4,0,0,0,.2,6.2,2.6,2.6,0,0,0,1,1.4,3.1,3.1,0,0,0,1.9.6,15.5,15.5,0,0,0,4.6-1.1l1,8.8a21.9,21.9,0,0,1-9,1.7,14.3,14.3,0,0,1-5.6-1,7.4,7.4,0,0,1-3.6-2.7,10.4,10.4,0,0,1-1.6-4.4,47.6,47.6,0,0,1-.4-8.1V768h-5.3v-9.1h5.3v-8.6l11.5-6.6v15.2Z" style="fill: #247c3d"/>
    <path d="M611.3,802.1,590,742.5h13.1l15.1,44.1,14.6-44.1h12.7l-21.3,59.6Z" style="fill: #247c3d"/>
    <path d="M676.1,788.3l11.4,1.9a18.2,18.2,0,0,1-6.9,9.6c-3.2,2.2-7.1,3.2-11.9,3.2-7.5,0-13-2.4-16.6-7.3s-4.3-8.9-4.3-14.9,1.9-12.7,5.6-16.8a18.8,18.8,0,0,1,14.2-6.1c6.4,0,11.5,2.1,15.2,6.4s5.5,10.7,5.3,19.5H659.5c.1,3.4,1,6,2.8,7.9a8.4,8.4,0,0,0,6.6,2.8,6.8,6.8,0,0,0,4.5-1.5A8.5,8.5,0,0,0,676.1,788.3Zm.7-11.5c-.1-3.3-.9-5.8-2.6-7.6a7.8,7.8,0,0,0-5.9-2.5,8,8,0,0,0-6.2,2.7,10.8,10.8,0,0,0-2.4,7.4Z" style="fill: #247c3d"/>
    <path d="M740.9,802.1H729.5V780c0-4.6-.3-7.6-.8-9a6.5,6.5,0,0,0-2.4-3.2,6.2,6.2,0,0,0-3.9-1.1,8.8,8.8,0,0,0-5.3,1.6,8.3,8.3,0,0,0-3.3,4.3c-.6,1.8-.8,5.1-.8,9.9v19.6H701.5V758.9h10.6v6.3c3.8-4.8,8.6-7.3,14.3-7.3a17.4,17.4,0,0,1,6.9,1.4,11.6,11.6,0,0,1,4.7,3.5,13.4,13.4,0,0,1,2.3,4.8,36.2,36.2,0,0,1,.6,7.6Z" style="fill: #247c3d"/>
    <path d="M776.4,758.9V768h-7.8v17.4a58.2,58.2,0,0,0,.2,6.2,3.2,3.2,0,0,0,3,2,15.5,15.5,0,0,0,4.6-1.1l1,8.8a22.1,22.1,0,0,1-9.1,1.7,13.8,13.8,0,0,1-5.5-1,8.3,8.3,0,0,1-3.7-2.7,11.9,11.9,0,0,1-1.6-4.4,68.6,68.6,0,0,1-.3-8.1V768h-5.3v-9.1h5.3v-8.6l11.4-6.6v15.2Z" style="fill: #247c3d"/>
    <path d="M816.9,802.1v-6.5a16.6,16.6,0,0,1-6.2,5.5,17.3,17.3,0,0,1-8.1,1.9,15.5,15.5,0,0,1-7.8-1.9,10.7,10.7,0,0,1-5-5.3,24.7,24.7,0,0,1-1.5-9.6V758.9h11.4v19.8c0,6.1.2,9.8.6,11.2a5.8,5.8,0,0,0,2.3,3.2,7.1,7.1,0,0,0,4.3,1.2,8.7,8.7,0,0,0,5.2-1.6,8.6,8.6,0,0,0,3.2-3.9c.5-1.6.8-5.5.8-11.7V758.9h11.4v43.2Z" style="fill: #247c3d"/>
    <path d="M854.5,802.1H843V758.9h10.7V765c1.8-2.9,3.4-4.8,4.9-5.7a9.1,9.1,0,0,1,4.9-1.4,13.9,13.9,0,0,1,7.5,2.2l-3.5,9.9a10.2,10.2,0,0,0-5.4-1.8,6,6,0,0,0-4,1.3c-1.2.9-2,2.5-2.7,4.8s-.9,7.1-.9,14.4Z" style="fill: #247c3d"/>
    <path d="M905.1,788.3l11.4,1.9a19.3,19.3,0,0,1-6.9,9.6c-3.2,2.2-7.2,3.2-11.9,3.2-7.5,0-13.1-2.4-16.7-7.3s-4.2-8.9-4.2-14.9,1.8-12.7,5.6-16.8a18.5,18.5,0,0,1,14.2-6.1c6.4,0,11.5,2.1,15.2,6.4s5.5,10.7,5.3,19.5H888.5c.1,3.4,1,6,2.7,7.9a8.7,8.7,0,0,0,6.6,2.8,6.8,6.8,0,0,0,4.5-1.5A8,8,0,0,0,905.1,788.3Zm.7-11.5a11.6,11.6,0,0,0-2.6-7.6,7.8,7.8,0,0,0-5.9-2.5,8,8,0,0,0-6.2,2.7,10.8,10.8,0,0,0-2.4,7.4Z" style="fill: #247c3d"/>
    <path d="M926.5,789.8,938,788a8.8,8.8,0,0,0,3,5.1,10.4,10.4,0,0,0,6.2,1.7c3,0,5.2-.5,6.7-1.6a3.7,3.7,0,0,0,1.5-3.1,3,3,0,0,0-.8-2.1,8.2,8.2,0,0,0-3.8-1.5c-9.2-2.1-15.1-3.9-17.5-5.6a11,11,0,0,1-5.2-9.7,12,12,0,0,1,4.5-9.5c2.9-2.5,7.5-3.8,13.7-3.8s10.3,1,13.2,2.9a15.2,15.2,0,0,1,5.9,8.5l-10.8,2a6.4,6.4,0,0,0-2.6-3.8,9.5,9.5,0,0,0-5.5-1.4c-3,0-5.2.5-6.5,1.3a2.9,2.9,0,0,0-1.3,2.3,2.6,2.6,0,0,0,1.2,2.1c1,.7,4.6,1.8,10.6,3.2s10.4,3.1,12.8,5.1,3.6,4.8,3.6,8.5-1.7,7.3-5,10.2-8.2,4.2-14.7,4.2-10.5-1.1-13.9-3.5A16.8,16.8,0,0,1,926.5,789.8Z" style="fill: #247c3d"/>
  </g>
</svg>
