<svg id="Layer_1" data-name="Layer 1" xmlns="http://www.w3.org/2000/svg" viewBox="0 0 760.6 610.3">
  <path d="M399.8,18c17-.5,34-.7,51,1.4,144.3,18.2,246.6,150,228.3,294.4a251.3,251.3,0,0,1-7.8,38.4A295.4,295.4,0,0,1,660,385c-40.1-11.2-80.1-23.4-117.9-40.8-15.5-7.8-31.4-16-42.8-29.3a139.7,139.7,0,0,1-23.1-39.4,100,100,0,0,1-4.2-53.9c3.4-17.7,11.5-34.1,21.4-49.1a279,279,0,0,1,87.7-81.2c-19.2,6.6-38.6,13.3-57.6,20.8s-40.8,15.5-61,24.1c-15.4,6.7-31.1,12.9-46.5,19.6-32.5,14.2-64.6,29.2-95.9,45.8q-33.9,17.3-66,37.8c-23.6,15.9-47.2,32.6-66.6,53.6-10.7,12.2-20.8,26.3-22.9,42.9-1.8,12.9,3.4,25.7,11.9,35.3,13.3,15,31.8,24.4,50.2,32,35.2,14.1,72.4,22.1,109.6,28.7,47,7.8,94.4,13.6,141.8,17.1,22.1,1.8,44.2,3.7,66.4,4.7s45.9,3,68.9,3.8c-23.8,26-52.2,48-84.2,63-20.4,9.7-42.2,15.9-64.4,20.1a262.9,262.9,0,0,1-87.6,1c-39.3-5.7-77.2-21.2-109.9-43.7-27.5-19.3-51.9-43.4-70.3-71.7a261.7,261.7,0,0,1-42.7-128.1c-4.4-62.3,14.2-126.2,52.5-175.7,16.7-21.6,36-41.4,58.4-57a277.1,277.1,0,0,1,82-38.9C364.3,21.9,382,19.4,399.8,18Z" transform="translate(-22.2 -17.7)" style="fill: #fff"/>
  <g>
    <path d="M28.6,582.3c4.5-5.6,11.6-8.6,18.7-9.2a68,68,0,0,1,18,1.2c-1,4.5-1.6,9-2.9,13.3-2.9-2.6-2.6-7-3.9-10.5-6.9-1.2-14.9-1.7-20.7,3s-7.9,12.4-7.6,19.6,2.5,14.7,8.4,19.1c7.6,6.6,18.6,5.1,27.4,2.2-.3,1-.6,2.2-1.6,2.7-6.2,4.2-14.2,4.9-21.5,3.8-9.3-1.8-17.6-8.9-19.7-18.2S22.1,589.4,28.6,582.3Z" transform="translate(-22.2 -17.7)" style="fill: #fff"/>
    <path d="M126.4,592.9c-1.4-8.9-8.1-17.4-17.3-19.3a43.1,43.1,0,0,0-18.9.3c-9.7,2.3-16.3,11.9-17.6,21.1s.2,20,7.6,26.6c5.2,5.1,12.8,6.8,19.8,6.3,9.2.4,18.8-5.5,22.7-12.3S127.8,601.9,126.4,592.9Zm-7.9,10.6c-.4,6.1-1.3,12.8-6,17.1s-9.9,4.6-15.2,4.2c-7.4-.4-13.4-6.5-15.3-13.5a47.1,47.1,0,0,1-.3-22.7c1.2-5.4,4.5-10.7,10.3-12s14.8-1.5,20,3.6S119,595.4,118.5,603.5Z" transform="translate(-22.2 -17.7)" style="fill: #fff"/>
    <path d="M192.7,592.9a26.3,26.3,0,0,1,19.9-19.2,59.2,59.2,0,0,1,22.2.6c-.9,4.6-1.2,9.5-3.3,13.7a51.8,51.8,0,0,1-3.3-10.8c-6.8-1.3-14.5-1.8-20.3,2.6s-8.1,11.9-8,19,1.8,14.7,7.5,19.4,16,6.2,23.9,4c1.6-.2,3.5-1.7,4.8.1-6.9,5.4-16.1,6.7-24.5,4.9a24.7,24.7,0,0,1-18.2-15.8A34.2,34.2,0,0,1,192.7,592.9Z" transform="translate(-22.2 -17.7)" style="fill: #fff"/>
    <path d="M753.7,577.4c2.8-2.9,6.9-3.9,10.9-4.3a69.2,69.2,0,0,1,16.4.9c-.8,4.4-1.5,8.7-2.4,13l-1.4-1a72.1,72.1,0,0,1-2.5-9.1,29.6,29.6,0,0,0-11.1-.6,8.6,8.6,0,0,0-6.9,10.1c.9,4.6,3.9,6.5,7.2,8.4s10.1,4.1,14.3,7.4c5.9,4.8,6,14.3,1.2,19.9-2.4,2.6-5.9,4-9.3,4.9a48.3,48.3,0,0,1-20.7-1.5c.8-4.7,1.2-9.4,2.3-13.9,3,2.8,2.6,7.4,3.9,11.1,5.6,2.1,12.7,2.9,17.6-1.2a9.6,9.6,0,0,0-.2-13.3c-5.8-4.9-14.1-6-19.6-11.3A13.8,13.8,0,0,1,753.7,577.4Z" transform="translate(-22.2 -17.7)" style="fill: #fff"/>
    <path d="M132.7,574.1c3.8-.2,7.8-.1,11.8-.1l31.4,39.3c-.1-12,.4-24.1-.1-36.1-2.1-.8-5-.7-6-3.1,5.6-.2,11.2-.2,16.7,0-1.3,2.3-4,2.3-6.2,3.1-.1,16.6.1,33.2-.1,49.8-1.6-.3-3.5-.1-4.4-1.8-10.8-13.5-21.7-27.2-32.7-40.7.3,13-.4,25.9.4,38.9,2.1.7,4.7.8,5.9,2.9-5.6.2-11.3.3-16.8,0,1.6-1.8,4-2.2,6.2-3,.2-15.3.1-30.7,0-46.1C136.7,576.4,133.8,576.5,132.7,574.1Z" transform="translate(-22.2 -17.7)" style="fill: #fff"/>
    <path d="M242.1,575.5a8.1,8.1,0,0,0,.1-1.6h36.4c-.9,4.1-1.3,8.3-2.5,12.2-2.7-1.8-2.2-6-3.5-8.9H255.1v20.7h13.3c.5-2.1,1.1-4.1,1.6-6.1l1.9-.3c.1,5.3.1,10.6.1,15.8h-2.1l-1.5-5.9c-4.4-.2-8.8-.1-13.3-.1v22h18.2c2.3-3.3,2.5-8.5,6.3-10.2-.1,4.5-.5,8.9-.8,13.5-12.5-.2-25.1.2-37.5-.3,1.8-1.5,4.2-2,6.3-3,.5-15.3.1-30.6.2-46Z" transform="translate(-22.2 -17.7)" style="fill: #fff"/>
    <path d="M320.2,576.3c-5-3-11.2-2.8-16.9-2.5s-11.4,0-17.1.3c1.3,2.3,4,2.3,6.2,3.2.1,15.3.2,30.7,0,46-2.2.8-4.6,1.3-6.4,2.9,7,.4,14,.3,20.8.1-1.8-2.1-4.6-2.2-6.8-3.4-.4-6.1,0-12.3-.2-18.4,6,0,12.4.7,17.7-2.7C326.6,597.2,328.4,582.5,320.2,576.3Zm-3,15c-.5,4.4-1.7,6.7-4.5,8.2s-8.6,1.8-12.9,1.7v-24c4.7-.3,10-1.3,14,1.8S317.6,587,317.2,591.3Z" transform="translate(-22.2 -17.7)" style="fill: #fff"/>
    <path d="M328.6,574h46.1c-.8,4.7-1.5,9.3-2.5,13.9l-1.5-.9a98.2,98.2,0,0,1-2.4-9.7H355.1v45.9c2.6.8,5.3,1.2,7.4,3a205.5,205.5,0,0,1-22.2,0c1.9-2,4.7-2.2,7.2-3,.1-15.3,0-30.6.1-45.9H334.4c-1.3,3.3-2.1,6.8-3.6,10.2h-1.1C329,583,329.1,578.5,328.6,574Z" transform="translate(-22.2 -17.7)" style="fill: #fff"/>
    <path d="M392.7,574.1c6.9-.2,13.8-.3,20.7,0-1.5,1.8-3.9,2.4-5.9,3.5,4.5,13.3,9.3,26.3,14,39.3,4.9-12.7,10.3-25.3,14.7-38.2.6-3.3-4.4-2-5.4-4.6,5.9-.3,11.8-.2,17.6,0-1.1,2.9-5.3,1.6-6.7,4.3a43.9,43.9,0,0,0-3.3,7.3c-5.7,13.7-11.2,27.4-17,41h-3.7c-5.9-15.8-11.6-31.7-17.7-47.4C399.1,575.8,394.5,576.9,392.7,574.1Z" transform="translate(-22.2 -17.7)" style="fill: #fff"/>
    <path d="M449.1,574.1c12.3-.3,24.6-.1,37-.1-1,4.3-1.1,8.9-3.2,12.9a97,97,0,0,1-2.8-9.6H462.6v20.6h13.2c1-2.3.6-5.8,3.5-6.6.1,5.5.1,11,0,16.6-3.1-.5-2.5-4.3-3.5-6.5-4.4-.2-8.7-.1-13.2-.1v22h18.3c2-3.4,2.4-8.4,6.2-10.2-.1,4.4-.5,8.9-.9,13.5-12.4-.2-24.9.2-37.4-.3,1.8-1.5,4.2-2,6.3-3.1.4-15.2.1-30.5.1-45.8C453.2,576.4,450.2,576.4,449.1,574.1Z" transform="translate(-22.2 -17.7)" style="fill: #fff"/>
    <path d="M492.8,574.1c3.8-.2,7.8-.1,11.8-.1l31.5,39.3c-.1-12,.2-24.1-.2-36.1-2.1-.8-4.9-.7-6-3.1,5.6-.2,11.1-.2,16.7,0-1.3,2.3-4,2.3-6.2,3.1-.1,16.5,0,33,0,49.5h-3.2l-33.9-42.2c.2,13-.5,25.9.3,38.9,2.1.7,4.7.7,5.9,2.9-5.6.2-11.3.3-16.8,0,1.6-1.8,4-2.2,6.2-3,.2-15.3.1-30.7,0-46.1C496.8,576.4,493.9,576.5,492.8,574.1Z" transform="translate(-22.2 -17.7)" style="fill: #fff"/>
    <path d="M549.3,574h46.1c-.8,4.3-1.3,8.7-2.4,13l-1.5,1c-1-3.5-1.4-7.3-2.7-10.7h-13v45.9c2.5.8,5.3,1.1,7.3,3a203.7,203.7,0,0,1-22.1,0c1.9-1.9,4.7-2.2,7.2-3,.1-15.3,0-30.6,0-45.9H555.1c-1.7,3.5-1.7,8-4.6,10.8C549.9,583.4,549.8,578.7,549.3,574Z" transform="translate(-22.2 -17.7)" style="fill: #fff"/>
    <path d="M597.2,574.1c6.1-.2,12.1-.2,18.3-.1l1.8,1.2-6.3,2c0,10.3-.1,20.7.1,31,.4,4.5.8,9.9,4.5,12.9s8.5,3,12.8,2.6a11.4,11.4,0,0,0,10-7.3c2.2-5.6,1.5-11.7,1.6-17.6s.3-14.4-.2-21.6c-2-.8-4.9-.8-6-3.1,5.8-.2,11.7-.2,17.5,0-1.3,2.3-4,2.3-6.2,3.1-.3,9.7,0,19.4-.1,29.1-.3,5.8-1.3,12.3-5.7,16.6s-10,5.3-15.5,5-12.2-1.7-16.1-6.4-4.2-9.8-4.3-15.1V577.3C601.3,576.4,598.4,576.4,597.2,574.1Z" transform="translate(-22.2 -17.7)" style="fill: #fff"/>
    <path d="M693.9,619.3c-3.9-6-7.5-12.4-11.5-18.3,4.5-1.7,9.3-4.3,11.1-9.1s1.2-11.1-2.8-14.6-9.7-3.6-14.9-3.6l-19.7.4c1.1,2.3,4.1,2.3,6.1,3.2,0,15.4.1,30.7,0,46-2.2.7-4.6,1.3-6.3,2.9,6.5.4,13.1.3,19.7.1-1.6-1.5-3.7-2.1-5.6-3.1-.9-7.1-.2-14.4-.3-21.6,1.9.6,4.6-.1,6,1.8,4.6,6.4,7.7,13.7,12.3,20.1,3.2,4.2,9,3.9,13.8,3.5l.8-1.6A13,13,0,0,1,693.9,619.3ZM669.6,599V577.2c4.4-.2,9.4-1.2,13.3,1.3s4,8.4,3.2,12.7a8.7,8.7,0,0,1-4.1,6.2C678.3,599.7,673.8,598.9,669.6,599Z" transform="translate(-22.2 -17.7)" style="fill: #fff"/>
    <path d="M710.9,577.2c-2.1-.9-5.2-.6-6-3.2,12.3-.2,24.5,0,36.8,0a112,112,0,0,1-2.7,12.8c-1.8-2.8-2.4-6.2-3.2-9.5H718.3v20.6h13.2l1.7-6.1,1.8-.2c.1,5.4.1,10.8,0,16.1-3.1-.4-2.5-4.2-3.5-6.4-4.4-.2-8.8-.1-13.2-.1v22c5.9-.1,12,.1,18-.1,2.3-3.2,2.9-7.3,5.5-10.1l1,.7c-.1,4.3-.6,8.5-.9,12.8-12.5-.2-24.9.2-37.4-.3,1.8-1.5,4.1-2,6.2-3C711.2,607.9,710.9,592.6,710.9,577.2Z" transform="translate(-22.2 -17.7)" style="fill: #fff"/>
  </g>
</svg>
