<?xml version="1.0" encoding="utf-8"?>
<!-- Generator: Adobe Illustrator 24.1.1, SVG Export Plug-In . SVG Version: 6.00 Build 0)  -->
<svg version="1.1" id="Layer_1" xmlns="http://www.w3.org/2000/svg" xmlns:xlink="http://www.w3.org/1999/xlink" x="0px" y="0px"
	 viewBox="0 0 950 768" style="enable-background:new 0 0 950 768;" xml:space="preserve">
<style type="text/css">
	.st0{fill:#FFFFFF;}
	.st1{fill:#056905;}
	.st2{fill:#FEFEFE;}
</style>
<rect class="st0" width="950" height="768"/>
<g>
	<path class="st1" d="M454,20.7c20.3-0.6,40.7-0.8,60.8,1.7c41.7,5.4,82.3,18.8,118.6,40.3c38,22.1,71.2,52.3,96.7,88
		c24.8,34.4,42.6,73.7,51.7,115c11.3,50.3,9.9,103.6-4.2,153.3c-3.7,13.3-8.3,26.4-13.6,39.1c-47.8-13.3-95.4-27.8-140.4-48.7
		c-18.5-9.2-37.4-19-51-34.9c-11.5-14.1-21.1-29.8-27.5-46.9c-7.7-20.4-9.1-42.9-5.1-64.2c4.1-21.1,13.7-40.8,25.6-58.5
		c27.3-39.3,63.2-72.6,104.5-96.7c-23,7.9-46.1,15.8-68.7,24.7c-24.4,9-48.7,18.5-72.6,28.7c-18.4,8-37.1,15.3-55.4,23.3
		c-38.7,16.9-77,34.8-114.3,54.6c-26.9,13.7-53.3,28.7-78.6,45.1c-28.2,18.9-56.2,38.7-79.4,63.7c-12.8,14.5-24.9,31.4-27.4,51.1
		c-2.1,15.3,4.1,30.7,14.2,42c15.9,18,37.8,29.2,59.8,38.2c41.9,16.9,86.4,26.2,130.8,34.1c56,9.3,112.3,16.2,168.9,20.4
		c26.4,2.1,52.7,4.4,79.1,5.7c27.4,1.7,54.7,3.5,82.1,4.5c-28.4,30.9-62.2,57.2-100.2,75c-24.3,11.5-50.5,18.9-76.8,24
		c-34.4,6.1-69.8,6.8-104.4,1.2c-46.9-6.8-91.9-25.2-130.9-52.1c-32.8-23.1-61.8-51.7-83.8-85.4c-30-45.3-47.6-98.4-51-152.6
		c-5.2-74.2,17-150.5,62.7-209.4c19.8-25.8,42.8-49.3,69.5-67.9c29.8-20.5,62.8-36.5,97.6-46.4C411.7,25.3,432.8,22.4,454,20.7z"/>
	<g>
		<path class="st1" d="M29.4,693.1c5.4-6.6,13.9-10.2,22.2-10.8c7.1-0.5,14.4-0.1,21.4,1.5c-1,5.3-1.8,10.7-3.3,15.9
			c-3.5-3.2-3.2-8.4-4.7-12.6c-8.2-1.4-17.8-2.1-24.6,3.6c-6.4,5.9-9.5,14.8-9.1,23.4c0,8.6,3,17.6,10,22.9
			c9.1,7.8,22.2,6.1,32.7,2.6c-0.3,1.2-0.7,2.6-1.9,3c-7.4,5.1-16.9,6-25.6,4.6c-11-2-20.9-10.6-23.5-21.7
			C20.3,714.3,21.7,701.6,29.4,693.1z"/>
		<path class="st1" d="M102.9,683.1c7.3-1.8,15.2-1.8,22.6-0.3c10.9,2.3,18.9,12.3,20.5,23.1c1.4,9.1,0.3,18.9-4.4,26.9
			c-5.6,9.1-16.1,15.1-26.9,14.6c-8.4,0.6-17.5-1.5-23.8-7.5c-8.8-7.8-10.5-20.6-9-31.6C83.3,696.8,91.3,685.9,102.9,683.1z"/>
		<path class="st1" d="M225,705.8c2.7-11.4,12.3-20.6,23.8-22.9c8.7-1.6,17.8-1.1,26.5,0.7c-1.1,5.5-1.5,11.3-3.9,16.3
			c-2-4.2-2.9-8.7-4.1-13.1c-8-1.5-17.3-2.1-24.2,3.2c-6.5,5.6-9.7,14.3-9.6,22.8c-0.1,8.4,2.4,17.5,9,23c7.4,7.2,19,7.4,28.5,4.8
			c1.8-0.3,4.1-2,5.6,0.1c-8.2,6.4-19.1,8.1-29.3,6c-9.7-2.3-18.4-9.3-21.5-18.9C223.5,720.8,223.3,713,225,705.8z"/>
		<path class="st1" d="M893.5,687.3c3.4-3.5,8.3-4.7,13-5.2c6.5-0.3,13.1-0.1,19.5,1.1c-0.9,5.2-1.7,10.2-2.8,15.4
			c-0.5-0.2-1.2-0.8-1.7-1.1c-1.4-3.6-1.9-7.3-2.8-10.9c-4.4-1-8.9-1.2-13.4-0.7c-5.4,0.8-9.3,6.6-8.2,11.9c0.6,4.7,4.7,7.9,8.7,10
			c5.6,3.2,11.9,4.8,17.1,8.8c7,5.7,7.1,17,1.5,23.8c-2.9,3-7.1,4.7-11.1,5.7c-8.2,1.4-16.7,0.5-24.7-1.7c1-5.5,1.5-11.1,2.8-16.7
			c3.5,3.4,3,8.9,4.6,13.3c6.6,2.4,15.1,3.4,20.9-1.5c4.1-4.2,4.2-11.7-0.2-15.8c-7-6-16.8-7.2-23.4-13.6
			C887.1,704.3,887.1,693.2,893.5,687.3z"/>
		<path class="st1" d="M153.4,683.4c4.7-0.2,9.3-0.1,14.1-0.1c12.5,15.5,25,31.2,37.6,46.7c-0.1-14.3,0.3-28.6-0.3-42.9
			c-2.5-1-5.9-0.9-7.1-3.7c6.6-0.2,13.3-0.2,19.9,0c-1.6,2.7-4.8,2.7-7.4,3.7c-0.1,19.7,0.1,39.4-0.1,59.2c-1.9-0.3-4.1-0.1-5.1-2
			c-13.1-16.1-26-32.3-39.1-48.5c0.3,15.4-0.6,31,0.5,46.4c2.5,0.9,5.5,0.9,7,3.5c-6.6,0.2-13.4,0.3-20.2,0c1.9-2.1,5-2.6,7.4-3.6
			c0.2-18.2,0.1-36.5,0-54.8C158.3,686.1,154.8,686.2,153.4,683.4z"/>
		<path class="st1" d="M283.9,685.1c0-0.5,0.1-1.5,0.1-1.9c14.4,0,28.8,0,43.2,0c-0.9,4.8-1.6,9.8-2.9,14.6
			c-3.3-2.1-2.7-7.2-4.2-10.7c-7,0-13.9,0-20.8,0c0,8.2,0,16.3,0,24.6c5.3,0,10.5,0,15.8,0c0.7-2.4,1.4-4.8,1.9-7.2
			c0.6-0.1,1.7-0.2,2.3-0.3c0.1,6.3,0,12.5,0.1,18.8c-0.6,0-1.8-0.1-2.4-0.1c-0.6-2.4-1.2-4.7-1.8-7c-5.3-0.3-10.6-0.2-15.8-0.2
			c0,8.8,0,17.5,0,26.1c7.2,0,14.4,0,21.6,0c2.7-3.9,2.9-10.1,7.5-12.1c-0.2,5.4-0.7,10.7-1.1,16c-14.9-0.1-29.7,0.3-44.6-0.2
			c2.1-1.9,5-2.4,7.4-3.7c0.6-18.2,0.2-36.5,0.2-54.7C288.4,686.4,286.1,685.7,283.9,685.1z"/>
		<path class="st1" d="M336.5,683.4c6.8-0.3,13.6,0.1,20.4-0.3c6.8-0.2,14.1-0.7,20,3c9.8,7.4,7.7,24.9-3.2,30.4
			c-6.3,3.9-14,3-21.2,3.2c0.1,7.3-0.3,14.6,0.2,22c2.7,1.6,6.1,1.6,8.2,4.1c-8.2,0.3-16.6,0.3-24.8,0c2-2,4.8-2.6,7.4-3.5
			c0.2-18.2,0.2-36.6,0-54.8C341.2,686.1,337.9,686.1,336.5,683.4z"/>
		<path class="st1" d="M386.9,683.3c18.4,0,36.6,0,55,0c-1,5.5-1.8,11.1-3,16.7c-0.5-0.2-1.2-0.8-1.7-1.1c-1.2-3.8-1.9-7.8-2.8-11.6
			c-5.2,0-10.5,0-15.7,0c0,18.2-0.1,36.5,0.1,54.7c3,0.9,6.3,1.5,8.8,3.6c-8.8,0.3-17.7,0.3-26.5,0c2.3-2.4,5.6-2.6,8.6-3.7
			c0.1-18.2,0-36.4,0-54.6c-5.3,0-10.5,0-15.8,0c-1.4,4.1-2.5,8.2-4.2,12.1l-1.2,0.1C387.4,694,387.5,688.6,386.9,683.3z"/>
		<path class="st1" d="M463.3,683.4c8.2-0.3,16.4-0.3,24.8,0c-1.8,2.1-4.7,2.7-7,4.2c5.4,15.7,11,31.3,16.7,46.9
			c5.7-15.2,12.3-30.2,17.6-45.6c0.7-3.8-5.3-2.4-6.5-5.4c7-0.3,14.1-0.2,21.1,0c-1.5,3.4-6.4,1.9-8.1,5.1c-1.7,2.7-2.7,5.7-3.9,8.7
			c-6.8,16.3-13.4,32.5-20.2,48.9c-1.5,0-2.9,0-4.5,0c-7.1-18.8-13.7-37.7-21.1-56.4C470.9,685.4,465.4,686.6,463.3,683.4z"/>
		<path class="st1" d="M530.5,683.4c14.6-0.3,29.4-0.1,44-0.1c-1.1,5.2-1.2,10.6-3.7,15.3c-1.5-3.7-2.4-7.5-3.4-11.4
			c-7,0-13.9,0-20.8,0c0,8.1,0,16.3,0,24.4c5.3,0,10.5,0,15.8-0.1c1.1-2.7,0.7-6.9,4.2-7.9c0.2,6.5,0.1,13.2,0,19.7
			c-3.7-0.5-3-5.1-4.2-7.7c-5.3-0.3-10.5-0.2-15.8-0.2c0,8.8,0,17.5,0,26.2c7.2,0,14.4,0,21.7,0c2.6-3.9,2.9-9.9,7.4-12.2
			c-0.2,5.4-0.6,10.7-1,16.1c-14.9-0.1-29.7,0.3-44.5-0.2c2.1-1.9,5-2.5,7.4-3.7c0.5-18.1,0.1-36.4,0.2-54.5
			C535.3,686.1,531.9,686.1,530.5,683.4z"/>
		<path class="st1" d="M582.5,683.4c4.7-0.2,9.3-0.1,14.1-0.1c12.5,15.5,25,31.2,37.6,46.7c-0.1-14.3,0.3-28.6-0.3-42.9
			c-2.5-1-5.9-0.9-7.1-3.7c6.6-0.2,13.3-0.2,19.9,0c-1.6,2.7-4.8,2.7-7.4,3.7c-0.1,19.6,0,39.3,0,58.9c-1.2,0-2.6,0-3.8,0
			c-13.4-16.8-26.9-33.6-40.4-50.2c0.3,15.4-0.6,31,0.5,46.4c2.5,0.9,5.5,0.9,7,3.5c-6.6,0.2-13.4,0.3-20,0c1.9-2.1,4.8-2.6,7.4-3.6
			c0.2-18.2,0.1-36.6,0-54.8C587.4,686.1,583.9,686.2,582.5,683.4z"/>
		<path class="st1" d="M649.9,683.3c18.4,0,36.7,0,55,0c-1,5.2-1.6,10.4-2.9,15.4c-0.5,0.3-1.2,0.9-1.7,1.2
			c-1.2-4.2-1.7-8.7-3.4-12.7c-5.2-0.2-10.2,0-15.4-0.1c0,18.2-0.1,36.4,0,54.6c2.9,1,6.3,1.5,8.7,3.7c-8.8,0.3-17.6,0.3-26.4,0
			c2.3-2.3,5.6-2.6,8.6-3.6c0.1-18.2,0-36.5,0.1-54.7c-5.2,0-10.5,0-15.7,0c-1.9,4.2-2,9.5-5.4,12.8
			C650.6,694.4,650.5,688.8,649.9,683.3z"/>
		<path class="st1" d="M707,683.4c7.2-0.2,14.5-0.2,21.7-0.1c0.6,0.3,1.7,1,2.3,1.4c-2.5,0.9-5,1.7-7.5,2.5
			c0,12.3-0.1,24.6,0.1,36.8c0.5,5.4,0.9,11.8,5.4,15.4c4.2,3.6,10,3.6,15.1,3.2c5.2-0.3,10.1-3.8,11.9-8.8c2.6-6.6,1.8-14,1.9-21.1
			c-0.1-8.6,0.2-17.1-0.2-25.6c-2.5-1-5.9-1-7.2-3.7c6.9-0.2,13.9-0.2,20.8,0c-1.5,2.7-4.8,2.7-7.3,3.7c-0.3,11.5,0,23.1-0.1,34.6
			c-0.5,7-1.6,14.6-6.8,19.8c-4.7,4.8-11.9,6.4-18.5,6c-7.1,0.3-14.5-2-19.1-7.7c-4.1-5.1-5-11.7-5.1-18c0-11.6,0-23.1,0-34.7
			C711.8,686.1,708.5,686.1,707,683.4z"/>
		<path class="st1" d="M777.2,683.4c7.9-0.2,15.7-0.3,23.5-0.6c6.1,0,13,0,17.8,4.3c5,4.3,5.4,11.7,3.3,17.5
			c-2.3,5.6-7.8,8.8-13.2,10.8c4.7,7.2,9,14.6,13.7,21.8c2.1,3.9,6.1,6.3,10.4,7.2c-0.2,0.5-0.8,1.5-1.1,1.9
			c-5.6,0.6-12.6,0.9-16.3-4.2c-5.5-7.5-9.2-16.3-14.8-23.9c-1.7-2.3-4.8-1.5-7.2-2c0.1,8.6-0.6,17.2,0.3,25.7
			c2.3,1.2,4.8,1.8,6.8,3.7c-7.9,0.3-15.7,0.3-23.5,0c2-2,5-2.6,7.5-3.6c0.2-18.2,0.1-36.5,0.1-54.7
			C782,686.1,778.5,686.1,777.2,683.4z"/>
		<path class="st1" d="M842.5,687.1c-2.5-1.1-6.1-0.8-7.2-3.7c14.6-0.2,29.3,0,43.9-0.1c-1,5.1-1.7,10.4-3.2,15.3
			c-2.3-3.4-2.8-7.5-3.9-11.4c-7,0-13.9,0-20.8,0c0,8.2,0,16.3,0,24.6c5.3,0,10.5,0,15.8,0c0.7-2.4,1.4-4.8,2-7.2
			c0.6-0.1,1.7-0.2,2.3-0.2c0.1,6.4,0.1,12.8,0,19.3c-3.7-0.6-3-5-4.2-7.7c-5.3-0.3-10.6-0.2-15.8-0.2c0,8.8,0,17.5,0,26.1
			c7.1-0.1,14.3,0.2,21.5-0.1c2.7-3.7,3.5-8.6,6.5-12.1l1.1,0.9c-0.1,5.1-0.7,10.1-1,15.2c-14.9-0.1-29.7,0.3-44.6-0.2
			c2.1-1.9,5-2.5,7.4-3.7C842.8,723.6,842.5,705.3,842.5,687.1z"/>
		<path class="st2" d="M105,686.3c8-1.7,17.7-1.8,24,4.2c7,7.3,8.2,18.1,7.7,27.8c-0.5,7.2-1.6,15.2-7.1,20.4
			c-4.7,4.7-11.8,5.4-18.1,4.8c-8.9-0.5-16.1-7.8-18.2-16.1c-2.4-8.8-2.4-18.2-0.3-27.1C94.2,694.2,98.1,687.9,105,686.3z"/>
		<path class="st2" d="M352.6,687c5.5-0.2,11.8-1.4,16.7,2.1c3.9,3.7,4.6,9.7,4.1,14.9c-0.3,3.8-1.9,7.8-5.4,9.8
			c-4.5,3.2-10.2,2.1-15.3,1.8C352.6,706,352.7,696.4,352.6,687z"/>
		<path class="st2" d="M793.3,687c5.3-0.2,11.1-1.4,15.9,1.7c4.3,3.7,4.7,9.9,3.7,15.2c-0.6,2.9-2.1,5.9-4.8,7.3
			c-4.4,2.7-9.8,1.8-14.8,1.9C793.3,704.3,793.3,695.6,793.3,687z"/>
	</g>
</g>
</svg>
